<svg class="svg-icon" style="width: 1em; height: 1em;vertical-align: middle;fill: currentColor;overflow: hidden;" viewBox="0 0 1024 1024" version="1.1" xmlns="http://www.w3.org/2000/svg"><path d="M287.75 220.91h468.36v621.64H287.75z" fill="#303030" /><path d="M549.14 146.63h-93.87a5 5 0 0 0 0 10h93.87a5 5 0 0 0 0-10z" fill="#EDA545" /><path d="M667.92 96.65H336.48a73.67 73.67 0 0 0-73.59 73.59v683.51a73.67 73.67 0 0 0 73.59 73.59h331.44a73.67 73.67 0 0 0 73.59-73.59v-683.5a73.67 73.67 0 0 0-73.59-73.6z m-395 73.59a63.66 63.66 0 0 1 63.59-63.59h331.41a63.66 63.66 0 0 1 63.59 63.59v26.37H272.89z m395 747.1H336.48a63.66 63.66 0 0 1-63.59-63.59v-25.5h458.62v25.5a63.66 63.66 0 0 1-63.59 63.6z m63.59-99.1H272.89V206.61h458.62z" fill="#EDA545" /><path d="M502.2 834.09a37.19 37.19 0 1 0 37.19 37.19 37.23 37.23 0 0 0-37.19-37.19z m0 64.37a27.19 27.19 0 1 1 27.19-27.19 27.22 27.22 0 0 1-27.19 27.19z" fill="#EDA545" /></svg>