<svg class="svg-icon" style="width: 1em; height: 1em;vertical-align: middle;fill: currentColor;overflow: hidden;" viewBox="0 0 1024 1024" version="1.1" xmlns="http://www.w3.org/2000/svg"><path d="M825.80306 538.233494a255.815998 255.815998 0 1 1-255.815998-255.815997 255.921142 255.921142 0 0 1 255.815998 255.815997z" fill="#FFD800" /><path d="M244.460417 743.790533h-1.261731a8.726974 8.726974 0 0 1-5.677791-3.469761l-56.46247-76.334736a8.62183 8.62183 0 0 1 1.787452-12.091591l524.039019-387.772051a8.62183 8.62183 0 0 1 6.4138-1.682308 8.726974 8.726974 0 0 1 5.67779 3.469761l56.462471 76.334737a8.62183 8.62183 0 0 1-1.787453 12.09159L249.71763 742.108225a8.726974 8.726974 0 0 1-5.257213 1.682308zM199.774104 660.726563l46.158333 62.245405 509.949686-377.467912-46.158332-62.245405z" fill="" /><path d="M692.480131 353.284731a8.62183 8.62183 0 0 1-6.939521-3.574905l-28.283807-38.062224a8.726974 8.726974 0 0 1 1.892596-12.196734 8.62183 8.62183 0 0 1 12.091591 1.787452l28.283807 38.167368a8.832118 8.832118 0 0 1-1.787452 12.196735 8.726974 8.726974 0 0 1-5.257214 1.682308zM651.894445 353.705309a8.832118 8.832118 0 0 1-6.939521-3.469761l-13.668755-18.505391a8.726974 8.726974 0 1 1 13.984187-10.514426l13.668755 18.400246a8.832118 8.832118 0 0 1-1.787453 12.196735 8.726974 8.726974 0 0 1-5.257213 1.892597zM640.223432 391.977821a8.62183 8.62183 0 0 1-7.044666-3.469761l-28.178663-38.167368a8.62183 8.62183 0 0 1 1.787452-12.196735 8.832118 8.832118 0 0 1 12.196735 1.787453L647.162953 378.519355a8.726974 8.726974 0 0 1-1.787452 12.196735 8.62183 8.62183 0 0 1-5.152069 1.261731zM600.058322 392.503542a8.62183 8.62183 0 0 1-7.044666-3.46976l-13.668754-18.505391a8.726974 8.726974 0 0 1 13.984187-10.514427l13.668755 18.505391a8.62183 8.62183 0 0 1-1.787453 12.091591 8.726974 8.726974 0 0 1-5.152069 1.892596zM587.861587 431.091488a8.937263 8.937263 0 0 1-7.044665-3.574905L552.638259 389.033782a8.726974 8.726974 0 1 1 13.984187-10.514427l28.178663 38.062224a8.62183 8.62183 0 0 1-1.787453 12.196735 8.726974 8.726974 0 0 1-5.152069 2.313174zM547.696478 431.091488a8.937263 8.937263 0 0 1-7.044666-3.574905l-13.668754-18.400247a8.726974 8.726974 0 0 1 13.984187-10.514426l13.668755 18.505391a8.62183 8.62183 0 0 1-6.939522 13.984187zM535.499743 469.469145a8.62183 8.62183 0 0 1-6.939521-3.574905l-28.283808-38.062224a8.832118 8.832118 0 0 1 1.787453-12.196735 8.726974 8.726974 0 0 1 12.196735 1.787452l28.283807 38.167369a8.726974 8.726974 0 0 1-1.892597 12.196734 8.411541 8.411541 0 0 1-5.152069 1.682309zM495.334634 469.889722a8.516685 8.516685 0 0 1-6.939522-3.469761l-13.668754-18.505391a8.62183 8.62183 0 0 1 1.787452-12.196734 8.726974 8.726974 0 0 1 12.196735 1.892596l13.668755 18.400247a8.726974 8.726974 0 0 1-1.892597 12.196734 8.411541 8.411541 0 0 1-5.152069 1.682309zM483.66362 508.162234a8.516685 8.516685 0 0 1-6.939521-3.46976l-28.809529-38.167369a8.726974 8.726974 0 0 1 1.892597-12.196735 8.62183 8.62183 0 0 1 12.091591 1.892597L490.182565 494.178047a8.832118 8.832118 0 0 1-1.787453 12.196735 8.937263 8.937263 0 0 1-4.731492 1.787452zM442.97279 508.687956a8.62183 8.62183 0 0 1-6.939522-3.574905l-13.668754-18.400247a8.726974 8.726974 0 0 1 1.787452-12.196735 8.62183 8.62183 0 0 1 12.196735 1.787453l13.668755 18.505391a8.726974 8.726974 0 0 1-1.787453 12.09159 8.832118 8.832118 0 0 1-5.257213 1.787453zM431.091488 546.75018a8.62183 8.62183 0 0 1-7.044666-3.574905l-28.178663-38.167369a8.62183 8.62183 0 0 1 1.787452-12.196734 8.726974 8.726974 0 0 1 12.196735 1.892596l28.178663 38.167369a8.62183 8.62183 0 0 1-1.787452 12.09159 8.726974 8.726974 0 0 1-5.152069 1.787453zM390.71609 547.381045a8.62183 8.62183 0 0 1-7.044666-3.574905L370.00267 525.721327a8.726974 8.726974 0 0 1 13.984187-10.514427l13.668754 18.505391a8.726974 8.726974 0 0 1-1.787452 12.196735 8.62183 8.62183 0 0 1-5.152069 1.472019zM378.519355 585.338125a8.516685 8.516685 0 0 1-6.939521-3.469761l-28.283808-38.167368a8.726974 8.726974 0 0 1 14.089332-10.514427l28.178663 38.062225a8.832118 8.832118 0 0 1-1.787453 12.196734 8.726974 8.726974 0 0 1-5.257213 1.892597zM338.774823 585.863846a8.62183 8.62183 0 0 1-7.044666-3.574905l-13.668754-18.400246a8.726974 8.726974 0 0 1 1.787452-12.196735 8.62183 8.62183 0 0 1 12.196735 1.787453l13.668754 18.50539a8.62183 8.62183 0 0 1-1.787452 12.091591 8.726974 8.726974 0 0 1-5.152069 1.787452zM326.578088 624.136359a8.62183 8.62183 0 0 1-7.044666-3.574905l-28.178663-38.062224a8.726974 8.726974 0 1 1 13.984188-10.514427l28.178663 37.851936a8.832118 8.832118 0 0 1-6.939522 13.984187zM286.412979 624.556936a8.62183 8.62183 0 0 1-7.044666-3.574905l-13.668755-18.400246a8.726974 8.726974 0 1 1 13.984188-10.514427l13.668754 18.505391a8.726974 8.726974 0 0 1-1.787452 12.196735 8.62183 8.62183 0 0 1-5.152069 1.787452zM274.216244 662.408872a8.726974 8.726974 0 0 1-7.044666-3.469761l-28.178663-38.167369a8.726974 8.726974 0 0 1 1.787453-12.196734 8.832118 8.832118 0 0 1 12.196734 1.787452l28.178663 38.167369a8.62183 8.62183 0 0 1-6.939521 13.879043zM234.051135 663.250026a8.832118 8.832118 0 0 1-7.044666-3.469761L213.337714 641.380018a8.726974 8.726974 0 0 1 14.089332-10.514426l13.668754 18.400246a8.726974 8.726974 0 0 1-1.892596 12.196735 8.62183 8.62183 0 0 1-5.152069 1.787453zM525.721327 279.78889a8.726974 8.726974 0 0 1-8.726974-8.726974v-47.420064a8.726974 8.726974 0 1 1 17.453948 0v47.420064a8.726974 8.726974 0 0 1-8.726974 8.726974zM493.126604 256.341719a8.726974 8.726974 0 0 1-8.726974-8.726974v-23.026594a8.726974 8.726974 0 0 1 17.348804 0v23.026594a8.726974 8.726974 0 0 1-8.62183 8.726974zM460.531882 256.341719a8.726974 8.726974 0 0 1-8.726974-8.726974v-23.026594a8.726974 8.726974 0 0 1 17.453948 0v23.026594a8.726974 8.726974 0 0 1-8.726974 8.726974z" fill="" /><path d="M460.531882 279.78889a8.726974 8.726974 0 0 1-8.726974-8.726974v-47.420064a8.726974 8.726974 0 1 1 17.453948 0v47.420064a8.726974 8.726974 0 0 1-8.726974 8.726974zM427.93716 256.341719a8.726974 8.726974 0 0 1-8.726974-8.726974v-23.026594a8.726974 8.726974 0 0 1 17.453948 0v23.026594a8.726974 8.726974 0 0 1-8.726974 8.726974zM395.447582 256.341719a8.726974 8.726974 0 0 1-8.726974-8.726974v-23.026594a8.726974 8.726974 0 0 1 17.453948 0v23.026594a8.726974 8.726974 0 0 1-8.726974 8.726974z" fill="" /><path d="M395.447582 279.78889a8.726974 8.726974 0 0 1-8.726974-8.726974v-47.420064a8.726974 8.726974 0 1 1 17.453948 0v47.420064a8.726974 8.726974 0 0 1-8.726974 8.726974zM362.85286 256.341719a8.726974 8.726974 0 0 1-8.726974-8.726974v-23.026594a8.726974 8.726974 0 0 1 17.453948 0v23.026594a8.726974 8.726974 0 0 1-8.726974 8.726974zM330.258137 256.341719a8.726974 8.726974 0 0 1-8.621829-8.726974v-23.026594a8.726974 8.726974 0 0 1 17.348803 0v23.026594a8.726974 8.726974 0 0 1-8.726974 8.726974z" fill="" /><path d="M330.258137 279.78889a8.726974 8.726974 0 0 1-8.621829-8.726974v-47.420064a8.726974 8.726974 0 1 1 17.348803 0v47.420064a8.726974 8.726974 0 0 1-8.726974 8.726974zM297.768559 256.341719a8.726974 8.726974 0 0 1-8.726974-8.726974v-23.026594a8.726974 8.726974 0 0 1 17.453948 0v23.026594a8.726974 8.726974 0 0 1-8.726974 8.726974zM265.173837 256.341719a8.726974 8.726974 0 0 1-8.726974-8.726974v-23.026594a8.726974 8.726974 0 0 1 17.453948 0v23.026594a8.726974 8.726974 0 0 1-8.726974 8.726974z" fill="" /><path d="M265.173837 279.78889a8.726974 8.726974 0 0 1-8.726974-8.726974v-47.420064a8.726974 8.726974 0 1 1 17.453948 0v47.420064a8.726974 8.726974 0 0 1-8.726974 8.726974zM232.684259 256.341719a8.726974 8.726974 0 0 1-8.726974-8.726974v-23.026594a8.726974 8.726974 0 0 1 17.348804 0v23.026594a8.726974 8.726974 0 0 1-8.62183 8.726974zM199.774104 279.78889a8.726974 8.726974 0 0 1-8.726974-8.726974v-47.420064a8.726974 8.726974 0 0 1 17.453948 0v47.420064a8.726974 8.726974 0 0 1-8.726974 8.726974z" fill="" /><path d="M148.568847 621.507752a8.201253 8.201253 0 0 1-3.890338-0.946298 8.62183 8.62183 0 0 1-4.836636-7.780676V219.330937a8.726974 8.726974 0 0 1 8.726974-8.726974h529.401376a8.726974 8.726974 0 0 1 5.152069 15.77164L153.720916 620.351165a8.411541 8.411541 0 0 1-5.152069 1.156587zM157.716398 228.057911v368.004929l494.178047-368.004929z" fill="" /><path d="M233.525413 452.646062a8.937263 8.937263 0 0 1-3.995482-0.946298 8.62183 8.62183 0 0 1-4.731492-7.780676V304.287504a8.726974 8.726974 0 0 1 8.726974-8.726974h187.787658a8.726974 8.726974 0 0 1 5.257213 15.666495L238.677482 450.85861a8.726974 8.726974 0 0 1-5.152069 1.787452zM241.83181 313.014478v113.555806l152.879762-113.555806zM740.846493 559.57778h-4.310914a8.726974 8.726974 0 1 1 0-17.348804h4.310914a8.726974 8.726974 0 1 1 0 17.348804z m-60.878529 0h-4.416059a8.726974 8.726974 0 1 1 0-17.348804h4.416059a8.726974 8.726974 0 0 1 0 17.348804z m-60.983674 0h-4.310915a8.726974 8.726974 0 1 1 0-17.348804h4.310915a8.726974 8.726974 0 1 1 0 17.348804zM702.889414 611.09847H540.546668a8.726974 8.726974 0 0 1 0-17.453948h162.342746a8.726974 8.726974 0 1 1 0 17.453948zM789.633433 665.773488h-4.41606a8.726974 8.726974 0 1 1 0-17.453948h4.41606a8.726974 8.726974 0 0 1 0 17.453948z m-60.983674 0h-4.310915a8.726974 8.726974 0 0 1 0-17.453948h4.310915a8.726974 8.726974 0 0 1 0 17.453948z m-60.983674 0h-4.310915a8.726974 8.726974 0 1 1 0-17.453948h4.310915a8.726974 8.726974 0 1 1 0 17.453948z m-60.87853 0h-4.416059a8.726974 8.726974 0 0 1 0-17.453948h4.416059a8.726974 8.726974 0 1 1 0 17.453948z m-60.983674 0h-4.310915a8.726974 8.726974 0 0 1 0-17.453948h4.310915a8.726974 8.726974 0 1 1 0 17.453948z m-60.878529 0h-4.416059a8.726974 8.726974 0 1 1 0-17.453948h4.416059a8.726974 8.726974 0 0 1 0 17.453948z" fill="" /></svg>